<mxfile host="app.diagrams.net" agent="Mozilla/5.0 (Macintosh; Intel Mac OS X 10_15_7) AppleWebKit/605.1.15 (KHTML, like Gecko) Version/18.4 Safari/605.1.15" version="26.2.3">
  <diagram name="Page-1" id="T-5vaFnL9zxQpfB0LsWH">
    <mxGraphModel dx="1327" dy="828" grid="0" gridSize="10" guides="1" tooltips="1" connect="1" arrows="1" fold="1" page="1" pageScale="1" pageWidth="850" pageHeight="1100" math="0" shadow="0">
      <root>
        <mxCell id="0" />
        <mxCell id="1" parent="0" />
        <mxCell id="1l0BF_r-PhS_tgj7KF5t-5" value="" style="shape=stencil(lZzJjhxHEkS/pq+B2JezRvMfAkQNieGIAkXN8vfjgUYmK82rXoI3qtXWFYsvZu4e9VZ++vPjL398eMvxz29fv/zzw38+/frt41v521vOn37/+OHrp2/2r7fy81v56bcvXz/84+uXv37/9f2///hl/+b+17++/Hv/hf++49YKcWxUjv97/0mLYb7/5O/vgM+ffn8EjLDqBVBX6BUAPcR2BYzQIgByWOsKqCGv14A5w8xXQAypAaCEeV1SaaEBYMzQrksqKcQCgBLa9ZTyOA76KaDPsK57yLbICYB6XNMJSKHSJ6SQrntIK0y4hzbCSFfAPH7yHFBDEYAZC+xhm1pVQANbMsspWQFkGtUOsSggwR7Mcqr7hAhLKva/lwPAPZQSRnN7gFMqMeThjhUuLvdQ3U3TknI+LOe0pYjGZ4ZQulprhWNN1QF6aASIoYvHxSOOPPe40K+2Z+dMh9RCui6ozBDh94vadrVDo0tQszDbTXSkocRrHM7HLT79/RjWdf1tYsxLun4LIAn+ftbzHPGIgS/OM14dbZyO8TwGh3H9fQvKtN9knnxd0FyHXzzfgNnL1ZOXWQTEbDMhsVHLdTmDSTT15DUxd1oeG9EB4NJaCX3qkgrsoeeQZNM1dPiEvkK5huBllkJ+1o5weN6DRSPw5LFClZuueNMza7Kd6XDW54CqvmC2NyBmz65ZYdTDWF4xDDklO7dFSzo50QlghrHiseITEDF32jVJdm4d87/RqiZMz4yFAEWTbZ13gHX9BDP4CtZqtlmvF2fpd9EpmQNd/cHS7yAuWXVJpR5O+xzQlK0a01tgrfsThLgtTIUGUGrYw+BjlVCZC0aNdWamh3Te6B6ihpnUD0r9yh+60KoSIljrdJTEHIRdulw/oOOWLWbE6w4qUlULSv16awVNe3SlI+Y7EGGM/+frFSTUPBZOJG5zyOuOTyXM/m1pek5ItC3xCB1hNmLkJosqDJlodlJ61PG+LNVGyc2HDH2ey5eu3wy0E1uoygeNZHfiI0tziB1pByczl5JgZ5wpwx3bikUHG2lqBMi6aYtdFU4pJU1rFh1JHRkrF/FfOmZa+4QkS1p8Sklpnkk4Yjx2SnJxO0vRxbXD0888aJumT7AUI7Yaj0U+t6V0KIkTMFDsmPEp2S6HDH0OMD5yXdKYTFWznpJxqk5ypx1c+YGfDzglu9cprI0zrXGDFhVAWapFjfG2JJK1zXncjKi0e1Fua3GfwmR3YXVYnCT27OoRfYYKSxqnBHnQbZQJLbPl6yn1hMe6z+S6pK0kGaBSteI97GQrydnOjbKzK7fVgulwn5KwNlbbpmK0ApjQp0dVFWNycYDHmSGs66bNy0l+jqQ+bZwks/EpzcsYZronMQYgf/B7KBi9zXKyy3GDqgb54PsPOY5OyYhGlQyUj8DzHODI8DYNKuhNdaB61mZehUpJKLVxMH6WsjpHbxElLWGYMWPuAihI6Lf1SxBod0vqkkUHMr7ixKEZC9UY7Vj79ZQs7RKbsXttLvKRSLeUpTWxgjXGrU6zAihqmPFp3aCiaVicE11yB3Dys3Pds/YjGzwASPrUqYWGfazUBnBazNQHcW/L00Lu7Sd0rGYI0srYhTIIAt1RaSMTFL17V5Fux4BMYGoWtUhFHaKt+CRqdKxBDUd/6lncePkJSQFULLE9+E+g3oed0rgaXz1173OAk3HmIUTWt20KE0jY8PFdrt3RoQy0VKlvJktNq6GlCQMQhduRdCqgkPg+tfMDgKoH5nGjK4DqaJY+VK5HNI3d4016DyTYzfqltWc3TbzVrF+U4jY+1g9F+srt8MFXwViSon1modiatCiz+49gS1vbivFNvOlykv8HZkwCvLg62lZFRE66spkNIB3XXRBYGGa2UkwKmLTpdpQ7HwDUo9iAqACSx5s6LHeszDWkk2MXR/UlA0xH4agQso+1KID6afviPODGNH4U0H90ScOZN0l8A6hpTIxLGyDHujA/bEBTAJLErmMTlSvRe9NFARTIDNDcHqiTYwAJZPcumjzgppjjlkSiaZu382niS9uBsgIoZRWXFA1A1dCnn0BFhL0HAUycd9mnNBRAanffgwsCVGr5ccBw5j3Y+M449wAgB7K8r4n9JinmZ2oXLm6P4AgTqFjMsb+nDpQxA+2s7MkJ7WG5HBdDA8BWCzKNsnD6Yw9vCOebWGrZNeisAKrCGatUzjcxarSzBv0AIMVuzFimgm720JOKpm2OpB+KZqDNvUnSNEfhmLf2oUU1Mw3cw3zCW4nzDde4N4Onkpev820HotJjdFyjs2haLsfdaFE/QDlYWg7HjBeXHusx/fBQwUIB7o7VPIQArR/9jIeCFOo4N+HUI17cTlDXTW91yqUWid6dJ1/MEJKbGiH9YKamJS8u25kxiwA3AInXGl25qDIznlpZNwANgpWhTZeemSS6CaSeWJYV1+G4YTNJFUq7SbvxSfmUZjoMoNM7hftxSRO75SSUZRa2XBDAamjVcH8zvWMXJwXaXWohAZ40tm6Rc+NAArgtPbari2YelbV71ekdHhzprtSSM1KH3XSRHkrCU+quW7YB8AkjHzz4YUmF+nFF2Uw+J7efA5pOgmUeWR5dHajwcPqYat5bqNEnLFegzWgaM+pEXp1YpphJe1mbo4Et7SlFSVnc27UlaTDO6A9jaGLvDenPsHuV/LDujE9I4p5EYAonPXZbZONi/5S2fzpmmV5xb6lgTZ5crm7AbjbsPxjplPqSAYiG7tciWZeE4T65kVaOGnloBcsMniR+doMFg601R9Wi38v/TwGpu04Tl+JTdaXHeje/lF0VjoZm0/lK4YF7E7s3QHIKBedHtW9UeCDEPqDKXEHB2mZKTpUxC01FX4PkwQBXy7Foj281ljYHcsScmJ2MSx1nhbITWSmzh1btNk9u+kedE76hxUPfChTkrK1oEYSH5i0RSGkpImP1451c4OtLu16Re4lF+9KRGYOryyZsDPrMlvlBnpsm4L769BIAJ5Dm0Fw+kTxP92Yh8VzXSpoRzAWoKra8G0c80v2OQ7ySH8yspq2i/eSK5sybRtPMfcrVnddkrDMsN1Rojk0czABSBSjjDlBdKZBKUHt83zXJKRQZILsaLj5yKDrnuIuDtCTXpzTOhG8WknpP54mlFbUa0xtOXU1X+hgs9abThuOccX3l0cLBTBKQYphO1O83ABTzlsYw+0yc1Wxaw508m9Zd+3e/xIAldafR11nVfZV3pFC3+JT8i7MUb3tFQlXvEHloa9MWhcTQiYzvXviK80jDyyyYyK17o74lA80S6N/fIgYfU4pEH/xoPmqHb0914e/LALkRCMpv7u9biMEbeDJ7RPWtrKx2l3KIf6ldW9imTOL6xHtEkt8hRJeqqKeUXBMq83u85AtD3AfYDEcoAz+vt02L2kk3BbroPqFjtNgvzaMCcPR16LGaeFjEm6PjSY0No2gFIzXc9O7tuadptIfmnqgYgC6uVfdaviPHaMOR4YFzE98H8E/A5OZHc6+vON32pbTHzHHSwHzV91e5o/ofrrFcTo7/PD+7crJxPTqlzbldj5XqPMuZ981TodXdVEPnd5HT9fZ4ImC5R2F79oMegy6NfDezH2u5MerI3ysQfTKJ/KLqKQKlhqNWBqCqx3KPhdqp2F8C3JKosL8cF9sA3oNMHTTWuMtpxA3gTeu7Gf4SmeVGhFvEYPnjX+ZzD7B/fP/uoN8+ff78/tVDj/9fv2vIfvT+PUXl5/8D);lineShape=1;strokeColor=default;" vertex="1" parent="1">
          <mxGeometry x="503.91081365805667" y="295.27300210009787" width="259.5216751638154" height="217.7550992426735" as="geometry" />
        </mxCell>
      </root>
    </mxGraphModel>
  </diagram>
</mxfile>
